<svg width="38" height="45" viewBox="0 0 38 45" fill="none" xmlns="http://www.w3.org/2000/svg">
<path fill-rule="evenodd" clip-rule="evenodd" d="M8.59967 1.84093L8.64804 3.05674H4.53687H0.425781V22.3152V41.5736L11.4663 41.5756L22.5067 41.5775L22.7714 42.0616C23.513 43.4179 25.0879 44.2955 26.5676 44.1769C26.896 44.1506 27.5782 43.9898 28.0835 43.8197L29.0023 43.5102L29.875 43.8139C31.4018 44.3452 32.3675 44.3045 33.556 43.659C34.2422 43.2862 35.0394 42.453 35.3574 41.7762C35.6155 41.2267 37.5603 35.1551 37.7332 34.3585C37.9223 33.4876 37.9054 32.2262 37.6927 31.3228C37.3607 29.9134 36.4522 28.4359 35.4137 27.6161L34.9208 27.2271L34.917 15.1429L34.9133 3.05869L30.7821 3.0334L26.651 3.00811L26.6662 1.81662L26.6813 0.625122H17.6163H8.5513L8.59967 1.84093ZM24.0743 3.2362C24.0743 3.45631 23.3297 4.52729 22.8616 4.98025C22.2073 5.61355 20.9792 6.2766 19.909 6.57433C19.2218 6.76555 18.8845 6.79804 17.6247 6.79415C16.3183 6.79016 16.0456 6.75991 15.2756 6.53426C14.1344 6.19976 13.0789 5.59526 12.3529 4.86023C11.7828 4.28316 11.2647 3.5311 11.2647 3.28084C11.2647 3.17774 12.4633 3.15401 17.6695 3.15401C21.1922 3.15401 24.0743 3.19097 24.0743 3.2362ZM10.1564 6.14617C11.6036 7.93127 13.9931 9.11936 16.6313 9.36554C19.8964 9.67017 22.9817 8.54355 24.9569 6.32533L25.6157 5.58563H29.0551H32.4947V12.1024C32.4947 15.6866 32.5048 18.643 32.5171 18.6721C32.5293 18.7012 32.2634 18.8299 31.9259 18.9579C29.9712 19.6995 28.4294 21.5536 27.9711 23.7137C27.9016 24.0412 27.8379 24.7285 27.8295 25.2411L27.8144 26.173L26.6834 26.168C25.8766 26.1644 25.3855 26.2117 24.9701 26.3329C24.2382 26.5465 23.1931 27.0788 22.6391 27.5204L22.214 27.8593H17.5876H12.9613L12.9864 29.0994L13.0115 30.3395L16.7616 30.3649C20.277 30.3888 20.5085 30.4009 20.4626 30.5595C19.8479 32.6837 19.9107 33.5705 20.8941 36.6508C21.2548 37.7802 21.578 38.781 21.6124 38.8745C21.6717 39.036 21.1885 39.0448 12.2149 39.0448H2.75481V22.3152V5.58563H6.22846H9.70202L10.1564 6.14617ZM7.27894 13.4636L5.8482 15.0194L6.65099 15.8952C7.09261 16.377 7.49553 16.7711 7.54642 16.7711C7.5973 16.7711 8.27352 16.081 9.04908 15.2376L10.4592 13.7042L9.62856 12.806C9.17172 12.312 8.77811 11.9078 8.75375 11.9078C8.72947 11.9078 8.06579 12.608 7.27894 13.4636ZM13.0056 13.2995C12.9809 13.3695 12.9721 13.9494 12.9861 14.5883L13.0115 15.7498L19.6626 15.7747L26.3138 15.7997V14.486V13.1723H19.6822C14.3022 13.1723 13.0421 13.1963 13.0056 13.2995ZM7.34397 20.7851L5.88922 22.3668L6.71961 23.2647L7.54991 24.1625L9.00456 22.5808L10.4593 20.9991L9.62892 20.1012L8.79862 19.2034L7.34397 20.7851ZM12.9667 21.8289V23.0933H19.6402H26.3138V21.8289V20.5644H19.6402H12.9667V21.8289ZM32.514 23.8377L32.4886 26.1572L31.3174 26.1615L30.1463 26.1659L30.1867 25.2375C30.2338 24.1566 30.4393 23.488 30.9503 22.7529C31.2685 22.2952 32.3522 21.393 32.4806 21.4789C32.5129 21.5006 32.528 22.562 32.514 23.8377ZM7.30142 28.0951L5.8912 29.6637L6.7206 30.5605L7.54991 31.4574L9.00456 29.8757L10.4593 28.294L9.62865 27.3958C9.17172 26.9018 8.77856 26.504 8.75482 26.512C8.73117 26.5199 8.07707 27.2322 7.30142 28.0951ZM28.111 28.9842L28.9821 29.2336L29.8202 28.9843C31.7456 28.4112 33.3705 28.838 34.5119 30.2163C35.2434 31.0997 35.6036 32.1961 35.5112 33.2573C35.4677 33.756 34.2539 37.7559 33.3988 40.2183C33.1276 40.9991 32.6149 41.4625 31.8575 41.6112C31.6104 41.6597 31.2326 41.5731 30.2623 41.2457L28.9908 40.8166L28.0331 41.1474C26.5176 41.6708 26.3578 41.6986 25.827 41.531C25.245 41.3473 24.7637 40.8421 24.5333 40.1728C24.4395 39.9001 23.9464 38.3858 23.4377 36.8077L22.5129 33.9383L22.5098 32.915C22.5069 31.9486 22.5233 31.8551 22.8052 31.2334C23.3131 30.1131 24.4357 29.1074 25.4734 28.8428C26.1643 28.6668 27.1955 28.722 28.111 28.9842Z" fill="#5D6CFD"/>
</svg>
