<svg width="56" height="56" viewBox="0 0 56 56" fill="none" xmlns="http://www.w3.org/2000/svg">
<path fill-rule="evenodd" clip-rule="evenodd" d="M24.4578 0.194181C15.4264 1.35128 7.50159 6.83798 3.17853 14.9269C1.68767 17.7164 0.614404 21.1049 0.14197 24.5136C-0.0452088 25.864 -0.0479446 30.1582 0.137592 31.4564C0.890685 36.7282 2.74178 41.1425 5.9375 45.2874C7.57964 47.4174 10.6658 50.1835 13.1833 51.7819C14.2812 52.4791 17.0296 53.8176 18.3756 54.3107C19.809 54.8357 22.4508 55.4975 24.0199 55.7245C30.6343 56.6813 37.6672 55.1198 43.2773 51.4488C44.5119 50.6409 46.5689 49.0555 46.5689 48.9119C46.5689 48.813 34.3827 36.6498 34.2837 36.6498C34.2399 36.6498 33.9199 36.8317 33.5725 37.0538C32.8016 37.5469 31.5593 38.0792 30.5329 38.356C29.3894 38.6644 26.4989 38.6403 25.2787 38.3122C24.0634 37.9854 22.1575 37.0028 21.2027 36.2108C19.5993 34.8808 18.3204 32.9319 17.7239 30.9097C17.171 29.0351 17.2256 26.5284 17.8607 24.6287C18.7441 21.9859 20.7172 19.7101 23.199 18.4711C24.0474 18.0475 25.6344 17.5161 26.0507 17.5161H26.3186V8.76918V0.022304L25.9629 0.0345495C25.7672 0.0413284 25.0899 0.113163 24.4578 0.194181ZM29.6292 8.7144L29.6572 17.4289L30.6966 17.6914C34.3244 18.6073 37.3772 21.6565 38.2933 25.2789L38.556 26.3176L47.2693 26.3456C55.5718 26.3723 55.9826 26.3644 55.9826 26.1783C55.9826 25.6942 55.6253 23.1724 55.4225 22.2253C54.3188 17.0702 51.8629 12.43 48.239 8.65241C43.4695 3.68079 37.2848 0.707185 30.3954 0.0730363L29.6011 0L29.6292 8.7144ZM38.4688 29.92C38.4688 30.6048 37.6729 32.5991 36.8931 33.8683L36.6203 34.3122L42.7863 40.4704L48.9522 46.6285L49.827 45.5316C53.3553 41.1079 55.3744 36.0972 55.9284 30.3904L56 29.6523H47.2345H38.4688V29.92Z" fill="#BBC8D6"/>
</svg>
