<svg width="56" height="56" viewBox="0 0 56 56" fill="none" xmlns="http://www.w3.org/2000/svg">
<path fill-rule="evenodd" clip-rule="evenodd" d="M27.576 0.043545C27.3727 0.089147 27.0774 0.219156 26.9197 0.332393C26.7152 0.479175 25.4337 2.92853 22.455 8.86643C20.1573 13.4468 18.2746 17.2562 18.2714 17.3315C18.2668 17.4401 20.2823 17.4685 28 17.4685C34.4337 17.4685 37.7344 17.4313 37.7344 17.3586C37.7344 17.1845 29.5287 0.774381 29.3287 0.548454C28.945 0.115016 28.2054 -0.0980842 27.576 0.043545ZM12.9612 27.8821C11.0661 31.6802 9.51562 34.8373 9.51562 34.8978C9.51562 34.9709 15.7116 35.0078 28 35.0078C40.2884 35.0078 46.4844 34.9709 46.4844 34.8978C46.4844 34.8373 44.9339 31.6802 43.0388 27.8821L39.5934 20.9764H28H16.4066L12.9612 27.8821ZM3.82747 46.1917C0.902672 52.0576 0 53.9619 0 54.2666C0 54.8249 0.447672 55.5421 0.953313 55.7939C1.35494 55.994 2.15294 56 28 56C53.8471 56 54.6451 55.994 55.0467 55.7939C55.5523 55.5421 56 54.8249 56 54.2666C56 53.9619 55.0973 52.0576 52.1725 46.1917L48.345 38.5156H28H7.65505L3.82747 46.1917Z" fill="#BBC8D6"/>
</svg>
