<svg width="56" height="56" viewBox="0 0 56 56" fill="none" xmlns="http://www.w3.org/2000/svg">
<path fill-rule="evenodd" clip-rule="evenodd" d="M10.1544 1.65637V3.31285L10.5648 3.31373C11.2125 3.31493 12.298 3.51778 12.9378 3.75693C14.086 4.18625 14.9542 5.29072 15.0047 6.38622L15.0243 6.81335L14.1393 7.12206C12.867 7.56592 11.9807 8.14002 10.9176 9.20906C10.1575 9.97355 9.88852 10.3399 9.46567 11.1863C8.56536 12.9881 8.51305 13.3538 8.51206 17.847C8.51162 19.9984 8.46052 22.0567 8.39781 22.4496C8.16406 23.9143 7.57596 24.7894 5.81057 26.2991C1.05993 30.3617 -1.02698 36.9532 0.485949 43.1174C1.23492 46.1689 2.65285 48.6406 5.00689 50.998C7.04258 53.0369 9.01622 54.2654 11.675 55.1489C15.3256 56.362 19.3916 56.2753 22.9749 54.908L23.8332 54.5805L23.1923 53.7971C19.3376 49.0856 17.0968 41.9125 17.7112 36.2512C18.2293 31.4771 20.6351 27.7007 24.3262 25.8677C24.8077 25.6285 25.4725 25.3456 25.8035 25.2389C26.616 24.9771 26.6033 24.9912 26.3492 24.6345C26.2257 24.4613 25.9909 24.0342 25.8274 23.6853L25.5299 23.0511L25.4618 18.4583C25.3996 14.2753 25.3731 13.7898 25.1653 13.018C24.4301 10.2885 22.432 8.09005 19.8315 7.14972C19.3179 6.96404 18.8003 6.81215 18.6811 6.81215C18.4311 6.81215 18.4387 6.83183 18.2131 5.60927C17.6131 2.35896 15.0547 0.344134 11.1818 0.0721726L10.1544 0V1.65637ZM41.9998 21.6864C40.8331 22.3015 39.7553 23.1567 38.9609 24.0976C37.8466 25.4173 36.9097 27.558 36.6906 29.2842C36.58 30.1551 36.5831 30.1527 36.0393 29.7789C35.1957 29.1988 33.564 28.4752 32.4243 28.1755C31.5187 27.9373 31.0845 27.887 29.9073 27.8835C28.202 27.8786 27.3872 28.0555 25.9677 28.7391C24.1624 29.6084 23.0149 30.7691 22.0775 32.6741C21.1632 34.5321 20.7891 36.6081 20.9257 39.0659C21.3389 46.4966 25.8158 53.9009 30.8905 55.5467C32.0798 55.9325 33.893 56.0218 35.0269 55.7506C35.8755 55.5476 37.3309 54.9146 38.0118 54.4523L38.4311 54.1675L38.7654 54.392C39.4406 54.8455 41.1007 55.5813 41.8406 55.7553C42.9006 56.0045 44.9486 55.9187 45.937 55.5836C47.4104 55.0842 48.589 54.3414 49.9114 53.0789C52.9933 50.1367 55.3885 44.961 55.8959 40.1468C56.5525 33.9177 54.0721 29.3823 49.3184 28.12C47.967 27.7611 45.9643 27.7851 44.4645 28.178C43.1929 28.5112 41.4738 29.318 40.4841 30.0462L39.7892 30.5574L39.8642 30.0849C40.0181 29.1136 40.2751 28.2761 40.6635 27.4799C41.173 26.4352 42.3918 25.1837 43.4224 24.6467C43.8136 24.4427 44.1517 24.2613 44.1736 24.2434C44.2534 24.1781 43.0361 21.2486 42.9299 21.251C42.8698 21.2524 42.4512 21.4483 41.9998 21.6864Z" fill="#BBC8D6"/>
</svg>
