<svg width="56" height="56" viewBox="0 0 56 56" fill="none" xmlns="http://www.w3.org/2000/svg">
<path fill-rule="evenodd" clip-rule="evenodd" d="M13.125 18.1463V36.2925L14.8477 36.3532C16.1885 36.4004 16.8056 36.4749 17.6319 36.6891C22.0641 37.8383 25.4487 41.4881 26.1956 45.9236C26.3144 46.6293 26.3386 44.1344 26.3472 30.2566C26.3589 11.6094 26.3698 11.8717 25.4708 9.15907C23.7025 3.82325 19.5316 0.483385 14.1273 0.0756452L13.125 0V18.1463ZM6.5625 26.368V46.1457L12.7148 46.1908C19.579 46.2411 19.7216 46.2549 22.0502 47.0867L23.092 47.4588L23.0163 46.8377C22.6647 43.9531 20.6042 41.3018 17.8586 40.2012C16.6152 39.7027 15.7533 39.6029 12.6921 39.6029H9.84375V23.0966V6.5902H8.20312H6.5625V26.368ZM37.0781 9.99215C34.9861 10.2324 32.5945 10.9434 30.7561 11.8715L29.6295 12.4403L29.6378 30.8524C29.6424 40.979 29.6583 49.2767 29.6733 49.2916C29.6882 49.3066 30.1177 49.0468 30.6276 48.7144C32.2992 47.6245 34.0118 46.9063 35.7917 46.549C37.5138 46.2032 38.7875 46.1425 44.1055 46.1532L49.4375 46.164V28.0168V9.86961L43.668 9.88382C40.4947 9.89158 37.5293 9.94034 37.0781 9.99215ZM0 32.9307V52.7124L9.16016 52.7451L18.3203 52.7778L19.2825 53.078C20.9381 53.595 22.3703 54.4364 23.4017 55.498L23.8892 56H28.0013H32.1134L32.4903 55.6065C33.5183 54.5332 35.1176 53.5737 36.6953 53.0835L37.6797 52.7778L46.8398 52.7451L56 52.7124V34.5704V16.4284H54.3594H52.7188V32.9348V49.4412L45.582 49.4418C37.8389 49.4425 37.2535 49.4775 35.4371 50.0471C34.2509 50.4192 32.6805 51.2281 31.5203 52.0648L30.6109 52.7206H28.0203H25.4297L24.3906 52.0005C23.1014 51.1072 21.7755 50.4311 20.5629 50.0487C18.7518 49.4776 18.1657 49.4425 10.418 49.4418L3.28125 49.4412V31.2951V13.149H1.64062H0V32.9307Z" fill="#BBC8D6"/>
</svg>
