<svg width="56" height="56" viewBox="0 0 56 56" fill="none" xmlns="http://www.w3.org/2000/svg">
<path fill-rule="evenodd" clip-rule="evenodd" d="M1.46211 0.269822C0.810254 0.592405 0.5131 0.909823 0.213101 1.60412C-0.0710337 2.2618 -0.0710337 3.01281 0.213101 3.67049C0.5131 4.36479 0.810254 4.68221 1.46211 5.00479C1.99384 5.2678 2.09067 5.27549 4.91888 5.27652C7.62227 5.27755 7.84174 5.29294 8.01395 5.49246C8.15859 5.66029 8.63966 8.84985 10.2085 20.0431C11.8343 31.643 12.2708 34.5263 12.4959 35.1511C13.2809 37.3298 15.223 39.1191 17.3827 39.6531C18.4273 39.9114 45.3692 39.9177 46.5289 39.6599C48.9292 39.1263 50.9973 37.1169 51.6993 34.636C51.9388 33.7899 56.0027 12.395 56 11.9951C55.997 11.5739 55.6378 10.7134 55.3118 10.3464C55.1802 10.1982 54.8755 9.96569 54.6348 9.82977L54.1972 9.5826L34.0116 9.5252L13.8261 9.46781L13.4835 7.09642C13.295 5.79208 13.0526 4.43034 12.9447 4.07022C12.5334 2.69849 11.3312 1.25227 10.0892 0.635225C8.98222 0.0852263 8.30957 0.00096466 5.0179 4.62732e-05C2.08366 -0.000757315 1.99559 0.0059008 1.46211 0.269822Z" fill="#BBC8D6"/>
<path d="M27 49C27 52.866 23.866 56 20 56C16.134 56 13 52.866 13 49C13 45.134 16.134 42 20 42C23.866 42 27 45.134 27 49Z" fill="#BBC8D6"/>
<path d="M50 49C50 52.866 46.866 56 43 56C39.134 56 36 52.866 36 49C36 45.134 39.134 42 43 42C46.866 42 50 45.134 50 49Z" fill="#BBC8D6"/>
</svg>
