<svg width="56" height="56" viewBox="0 0 56 56" fill="none" xmlns="http://www.w3.org/2000/svg">
<path fill-rule="evenodd" clip-rule="evenodd" d="M40.1847 0.114034C39.5879 0.313894 38.9911 0.713615 38.6927 1.11334C38.4938 1.41313 29.6412 16.3027 29.5417 16.5026C29.5417 16.6025 30.3375 17.1022 32.0284 18.1015C33.421 18.9009 34.6146 19.5005 34.714 19.5005C34.913 19.5005 43.9645 4.3111 44.0639 3.61159C44.2629 2.71222 43.9645 1.61299 43.3677 0.913475C42.6714 0.114034 41.1794 -0.185757 40.1847 0.114034ZM25.2647 20.2C21.1865 21.9988 19.6945 22.7982 17.8046 24.0973C16.4121 24.9967 14.9201 26.4956 14.3233 27.395C13.9254 27.9946 13.3286 29.3936 13.1297 29.9932L13.0302 30.193H14.6217H16.2131L16.611 29.4935C17.1083 28.4942 17.6057 27.8946 18.5009 27.1951C19.6945 26.1958 22.4796 24.6969 24.4689 23.7975L25.0657 23.4977L24.8668 23.7975C24.7673 23.8974 24.3694 24.2971 24.071 24.6969C22.579 26.2957 20.7886 28.5941 19.9929 29.7933L19.6945 30.193H21.4849H23.2753L24.27 28.9939C25.1652 27.8946 28.0497 24.7968 28.2487 24.5969C28.3481 24.497 28.0497 25.6962 27.254 27.8946C26.8561 28.8939 26.5577 29.8932 26.5577 29.9932C26.4583 30.193 26.6572 30.193 28.1492 30.193H29.8401L30.3375 28.5941C30.6359 27.6948 30.9343 26.7954 30.9343 26.5955C31.0337 26.3957 31.0337 26.1958 31.1332 26.1958C31.2327 26.2957 31.5311 28.3943 31.6306 29.2937L31.73 30.0931H33.222H34.8135V29.7933C34.8135 29.0938 34.5151 26.8953 34.1172 24.7968C33.9183 23.5976 33.7194 22.5983 33.7194 22.4984C33.7194 22.3985 32.7247 21.7989 30.8348 20.6997C29.2433 19.8003 27.8508 19.0008 27.8508 19.0008C27.6519 19.1008 26.5577 19.6004 25.2647 20.2ZM1.09414 32.3915C0.497336 32.6913 0 33.4907 0 34.0903C0 35.1895 0.994671 36.0889 2.18828 36.0889H2.78508V42.1847C2.78508 49.0798 2.78508 49.3796 3.77975 51.1784C4.87389 53.3768 7.36057 55.2755 9.84725 55.7752C11.2398 56.0749 44.6607 56.0749 46.1528 55.7752C48.6394 55.2755 51.0266 53.4768 52.2202 51.1784C53.1155 49.3796 53.2149 48.9799 53.2149 42.1847V36.0889H53.8117C55.0053 36.0889 56 35.1895 56 34.0903C56 33.3908 55.5027 32.6913 54.9059 32.3915C54.4085 32.0917 54.2096 32.0917 28.1492 32.0917C1.98934 32.1916 1.59147 32.1916 1.09414 32.3915Z" fill="#BBC8D6"/>
</svg>
