<svg width="125" height="35" viewBox="0 0 125 35" fill="none" xmlns="http://www.w3.org/2000/svg">
<g clip-path="url(#clip0_1294_2944)">
<path fill-rule="evenodd" clip-rule="evenodd" d="M109.173 1.87687C109.173 1.62324 109.119 1.36961 109.011 1.14134C108.93 0.913072 108.767 0.710167 108.578 0.532625C108.389 0.380447 108.173 0.253631 107.929 0.152179C107.686 0.0507262 107.415 0 107.145 0C106.631 0.0253631 106.145 0.202905 105.766 0.557988C105.577 0.73553 105.442 0.913072 105.334 1.14134C105.226 1.36961 105.171 1.62324 105.171 1.87687C105.171 2.1305 105.226 2.35877 105.334 2.58704C105.442 2.8153 105.577 2.99285 105.766 3.17039C106.145 3.52547 106.631 3.72838 107.145 3.72838C107.686 3.72838 108.2 3.52547 108.578 3.17039C108.767 2.99285 108.902 2.8153 109.011 2.58704C109.119 2.35877 109.173 2.1305 109.173 1.87687ZM122.556 20.189C123.421 19.6818 124.151 19.0223 124.719 18.2361C124.514 18.0578 124.341 17.924 124.2 17.8147C124.08 17.7218 123.982 17.6465 123.908 17.5766L123.448 17.1455C123.286 16.9426 123.016 16.7904 122.745 16.765C122.464 16.765 122.183 16.9917 121.833 17.2736L121.772 17.323C121.366 17.7034 120.88 18.0078 120.339 18.2361C119.771 18.4643 119.149 18.5658 118.527 18.5658H118.473C115.743 18.5658 113.499 16.486 113.499 13.899V13.8483V13.7975C113.499 11.2359 115.743 9.15608 118.473 9.13072H118.527C119.149 9.10536 119.771 9.23217 120.339 9.46044C120.88 9.68871 121.366 9.99306 121.826 10.3481L121.877 10.3862C122.259 10.6734 122.568 10.9061 122.853 10.9061C123.097 10.8808 123.313 10.754 123.448 10.5764L124.016 10.0438L124.692 9.43508C124.124 8.64882 123.394 7.98938 122.529 7.48212C121.258 6.74659 119.825 6.36614 118.338 6.3915C118.068 6.3915 117.797 6.41687 117.527 6.44223C117.284 6.46759 117.04 6.49296 116.743 6.54368C116.121 6.6705 115.499 6.8734 114.905 7.12703C114.634 7.25385 114.364 7.38066 114.121 7.53284C110.525 9.63798 109.335 14.0258 111.417 17.4752C112.066 18.5658 113.012 19.4789 114.121 20.1383C114.391 20.2905 114.634 20.4173 114.905 20.5441C115.499 20.7977 116.121 21.0007 116.77 21.1275C117.04 21.1782 117.284 21.2036 117.554 21.2289C117.825 21.2796 118.095 21.2796 118.365 21.2796C119.852 21.305 121.312 20.9246 122.556 20.189ZM108.794 7.5075V21.2036H105.496V6.74661H107.983C108.416 6.74661 108.794 7.07633 108.794 7.5075ZM103.847 20.189L102.846 18.6419C102.841 18.6371 102.836 18.632 102.831 18.6268C102.823 18.6193 102.816 18.6114 102.808 18.6031C102.763 18.5561 102.707 18.4976 102.603 18.439C102.576 18.4136 102.522 18.4136 102.495 18.4136C102.455 18.4136 102.43 18.4272 102.398 18.4444L102.381 18.4537C102.374 18.4572 102.367 18.4608 102.36 18.4643L102.343 18.4748L102.322 18.4884L102.32 18.4895L102.319 18.4901L102.319 18.4901C102.244 18.5385 102.149 18.5992 102.035 18.6419C101.873 18.718 101.738 18.7687 101.576 18.8194C101.359 18.8955 101.143 18.9209 100.9 18.9209C100.467 18.9462 100.008 18.7687 99.7101 18.439C99.4127 18.0839 99.2505 17.6274 99.2775 17.1708V9.2068L102.873 8.82636H102.9C103.225 8.82636 103.495 8.57273 103.495 8.26837V6.77195H99.3046V2.05441H97.5742C97.4391 2.02905 97.2768 2.07977 97.1687 2.15586C97.0606 2.23195 97.0065 2.3334 96.9795 2.46022L96.1413 6.72122L93.5999 7.10167V8.31909C93.5729 8.44591 93.6269 8.59809 93.7351 8.69954C93.8432 8.80099 93.9514 8.82636 94.0866 8.82636H95.9791V17.4498C95.9791 18.6672 96.3306 19.6564 97.0335 20.3158C97.7365 20.9753 98.7368 21.3304 100.035 21.3304C100.765 21.3304 101.495 21.2036 102.197 21.0006C102.792 20.8231 103.36 20.5441 103.847 20.189ZM92.0858 15.1671C92.3021 15.6237 92.4103 16.1056 92.3832 16.6128C92.3832 17.2723 92.248 17.9064 91.9777 18.5151C91.7073 19.0984 91.3288 19.6057 90.8151 20.0115C90.2474 20.4427 89.6255 20.7978 88.9226 21.0007C88.0574 21.2543 87.1652 21.3811 86.273 21.3557C85.7593 21.3557 85.2186 21.305 84.7049 21.2289C84.2182 21.1528 83.7046 21.026 83.2449 20.8485C82.7853 20.6963 82.3527 20.5188 81.9472 20.2905C81.6498 20.113 81.3524 19.9354 81.082 19.7325L81.8391 18.5404C81.9202 18.4136 82.0283 18.3122 82.1364 18.2614C82.2716 18.1854 82.4339 18.16 82.5961 18.16C82.7853 18.16 82.9746 18.2107 83.1368 18.3122C83.2911 18.4156 83.4814 18.519 83.7224 18.6499L83.724 18.6508C83.778 18.6802 83.8345 18.7109 83.8938 18.7433C84.2182 18.9209 84.5697 19.0477 84.9212 19.1745C85.4079 19.3267 85.9215 19.4028 86.4352 19.3774C86.8678 19.3774 87.3004 19.3267 87.7059 19.1999C88.0304 19.0984 88.3278 18.9462 88.5981 18.7433C88.8415 18.5658 89.0307 18.3375 89.1389 18.0839C89.247 17.8303 89.3011 17.5766 89.3011 17.2976C89.3281 16.9172 89.1659 16.5368 88.8955 16.2578C88.6252 15.9788 88.3007 15.7759 87.9222 15.6237C87.4897 15.4461 87.0571 15.294 86.6245 15.1671C86.1378 15.0403 85.6512 14.8882 85.1916 14.736C84.7049 14.5838 84.2453 14.4063 83.7857 14.2033C83.3531 14.0004 82.9475 13.7468 82.5961 13.4425C82.2446 13.1381 81.9742 12.7577 81.785 12.3518C81.6768 12.1236 81.5957 11.8953 81.5416 11.6417C81.4876 11.3627 81.4605 11.0583 81.4605 10.7793C81.4605 10.2213 81.5957 9.66335 81.8391 9.13073C82.0824 8.5981 82.4609 8.14157 82.9205 7.76112C83.4612 7.35531 84.056 7.02559 84.7049 6.82268C86.4893 6.31542 88.3818 6.36615 90.1392 6.9495C90.8692 7.22849 91.5451 7.60894 92.1399 8.09084L91.3829 9.20682C91.3288 9.30827 91.2477 9.38436 91.1396 9.46045C91.0584 9.51117 90.9503 9.51117 90.8422 9.51117C90.6799 9.51117 90.5177 9.46045 90.3555 9.38436L89.977 9.20682L89.5985 9.05464C89.274 8.92782 88.9496 8.80101 88.5981 8.72492C88.1656 8.62346 87.7059 8.57274 87.2463 8.57274C86.5434 8.54737 85.8675 8.72492 85.2997 9.08C84.813 9.38436 84.5157 9.91698 84.5427 10.475C84.5427 10.8301 84.6779 11.1851 84.9482 11.4641C85.2186 11.7178 85.5701 11.946 85.9215 12.0982C86.3541 12.2758 86.7867 12.4279 87.2193 12.5547C87.7059 12.6816 88.1655 12.8337 88.6251 12.9859L88.6252 12.9859C89.1118 13.1381 89.5714 13.3156 90.0311 13.5185C90.4636 13.6961 90.8692 13.9497 91.2207 14.2287C91.6262 14.4316 91.8966 14.7867 92.0858 15.1671ZM80.0006 13.5946C80.0276 13.3663 80.0276 13.1634 80.0276 12.9352C80.0276 12.5547 80.0006 12.1743 79.9735 11.8699C79.8924 11.2866 79.7573 10.7286 79.541 10.196C79.2436 9.4097 78.7569 8.7249 78.1621 8.14155C77.5673 7.58356 76.8644 7.15239 76.0803 6.87339C75.2151 6.56904 74.323 6.44222 73.4037 6.44222C72.3223 6.41686 71.2678 6.61976 70.2945 7.00021C69.4023 7.35529 68.6183 7.86255 67.9694 8.52199C67.3205 9.18144 66.8339 9.94233 66.5094 10.7793C66.158 11.6924 65.9958 12.6308 65.9958 13.5946C65.9687 14.736 66.185 15.8773 66.5905 16.9679C66.942 17.8556 67.4827 18.6926 68.1857 19.3774C68.8616 20.0115 69.6997 20.5187 70.5919 20.8485C71.5652 21.1782 72.5656 21.3557 73.593 21.3557C74.1607 21.3557 74.7285 21.3304 75.2963 21.2543C75.864 21.1782 76.4318 21.0514 76.9995 20.8738C77.5673 20.6963 78.081 20.4427 78.5947 20.1383C79.0543 19.8593 79.4599 19.5549 79.8113 19.1745L78.838 18.0078C78.784 17.9317 78.7028 17.881 78.6217 17.8303C78.5406 17.8049 78.4325 17.7795 78.3514 17.7795C78.1351 17.7795 77.9458 17.8556 77.7566 17.9571C77.5132 18.1092 77.1888 18.2614 76.8644 18.4136C76.4859 18.5911 76.0533 18.7433 75.6477 18.8701C75.08 19.0223 74.5122 19.0984 73.9444 19.0984C72.5926 19.0984 71.5112 18.6926 70.7001 17.9317C69.889 17.1708 69.4023 15.9787 69.2942 14.3809L69.2672 14.1019H79.4058C79.5139 14.1019 79.6221 14.0765 79.7302 14.0512C79.8113 14.0258 79.8654 13.9751 79.8924 13.9243C79.9465 13.8229 80.0006 13.7214 80.0006 13.5946ZM77.1077 12.1236V12.3772H69.2672L69.3212 12.0728C69.5105 10.9315 69.9431 10.0438 70.619 9.4097C71.2949 8.77563 72.2411 8.44591 73.4307 8.44591C73.9985 8.44591 74.5392 8.54736 75.0529 8.75026C75.5126 8.95317 75.8911 9.2068 76.2155 9.56188C76.5399 9.8916 76.7562 10.2974 76.8914 10.7286C77.0266 11.1851 77.1077 11.6417 77.1077 12.1236ZM64.7521 24.7544C64.4006 24.5768 64.0491 24.4247 63.6706 24.2725C62.9677 24.0188 62.2377 23.7906 61.5077 23.613C60.21 23.334 58.9122 23.1311 57.5874 23.0297C57.2649 22.9961 56.9305 22.9847 56.6 22.9735H56.5999C56.4317 22.9678 56.2646 22.9621 56.1004 22.9536C55.3164 22.9282 54.5594 22.8775 53.7753 22.7761C53.0724 22.6746 52.3965 22.4971 51.7206 22.2688C51.4231 22.1673 51.1528 22.0659 50.8824 21.9137C50.7202 21.8376 50.585 21.7362 50.4499 21.6347L50.4498 21.6347L50.3417 21.5586C50.2065 21.4572 50.0984 21.3304 49.9902 21.2035C49.7199 20.7724 49.5847 20.2651 49.6117 19.7578C49.6117 19.5042 49.6658 19.2506 49.7469 18.997C49.855 18.718 49.9902 18.4643 50.1795 18.2107C50.3958 17.9317 50.6391 17.6781 50.9095 17.4752C51.2339 17.2215 51.5854 17.0186 51.9368 16.8411L52.3965 16.6128L51.9368 16.3846C51.0446 15.9534 50.3147 15.3193 49.7739 14.533C49.2332 13.7214 48.9628 12.783 48.9899 11.8192C48.9628 10.2467 49.7199 8.77562 51.0176 7.81182C51.6935 7.30456 52.4776 6.92412 53.3157 6.69585C54.262 6.41685 55.2623 6.29004 56.2356 6.3154C56.9926 6.3154 57.7497 6.39149 58.4796 6.54367C59.1285 6.69585 59.7774 6.92412 60.3722 7.20311L60.4263 7.22847H65.6713V8.57272C65.6984 8.7249 65.6443 8.90244 65.5361 9.02925C65.3739 9.18143 65.1576 9.25752 64.9143 9.28288L62.8866 9.63797L62.9947 9.91696L62.9947 9.91703C63.1029 10.2214 63.211 10.5257 63.2651 10.83C63.3192 11.1598 63.3732 11.5148 63.3732 11.8446C63.4003 13.3917 62.6432 14.8881 61.3455 15.8519C60.6696 16.3592 59.9126 16.7143 59.0744 16.9679C58.1552 17.2469 57.1819 17.3737 56.2086 17.3737C55.5327 17.3737 54.8297 17.323 54.1809 17.1962L54.0727 17.1708L53.9916 17.2215C53.3157 17.602 52.9642 18.0585 52.9642 18.5658C52.9642 18.997 53.2076 19.4028 53.6401 19.5803C54.0998 19.7832 54.6134 19.91 55.1271 19.9607C55.776 20.0368 56.4519 20.0622 57.1278 20.0622C57.9119 20.0622 58.6419 20.0876 59.3448 20.1383C60.1018 20.189 60.8318 20.2905 61.5618 20.4426C62.2107 20.5695 62.8595 20.7977 63.4273 21.1021C63.968 21.4064 64.4006 21.8123 64.725 22.2942C65.0765 22.9029 65.2387 23.5623 65.2117 24.2471C65.2117 24.4794 65.189 24.6904 65.1644 24.9191V24.9191L65.1576 24.9826V25.0587C65.126 25.029 65.085 24.9993 65.0511 24.9747C65.0271 24.9573 65.0066 24.9424 64.9954 24.9319C64.9143 24.8305 64.8332 24.7797 64.7521 24.7544ZM59.6692 13.1888C59.8315 12.783 59.9126 12.3518 59.8855 11.9206C59.9396 11.0837 59.5881 10.2467 58.9663 9.63797C58.3445 9.07998 57.4523 8.80098 56.2356 8.80098C55.019 8.80098 54.1268 9.07998 53.532 9.63797C52.9102 10.2467 52.5587 11.0837 52.6128 11.9206C52.6128 12.3518 52.6939 12.783 52.8561 13.1888C52.9913 13.5692 53.2346 13.9243 53.559 14.2033C53.8835 14.5077 54.289 14.7359 54.7216 14.8628C55.2353 15.0149 55.749 15.1164 56.2897 15.091C56.8304 15.091 57.3712 15.0149 57.8578 14.8628C58.2904 14.7359 58.6689 14.5077 58.9933 14.2033C59.2907 13.9243 59.5341 13.5692 59.6692 13.1888ZM45.9078 24.2725C46.2593 24.4247 46.6107 24.5768 46.9622 24.7544C47.0077 24.7686 47.0618 24.7908 47.1244 24.8166C47.1732 24.8367 47.2273 24.8589 47.2866 24.8812C47.2978 24.8917 47.3183 24.9065 47.3423 24.9239C47.3762 24.9486 47.4171 24.9783 47.4488 25.008V24.9319C47.4759 24.7036 47.5029 24.45 47.5029 24.1964C47.5299 23.5116 47.3677 22.8521 47.0162 22.2434C46.6918 21.7615 46.2592 21.3557 45.7185 21.0513C45.1507 20.747 44.5019 20.5187 43.853 20.3919C43.123 20.2397 42.393 20.1383 41.636 20.0876C40.879 20.0368 40.149 20.0115 39.419 20.0115C38.7431 20.0115 38.0672 19.9861 37.4183 19.91C36.9046 19.8593 36.3909 19.7325 35.9313 19.5296C35.4987 19.352 35.2554 18.9462 35.2554 18.515C35.2554 18.0078 35.6069 17.5512 36.2828 17.1708L36.3639 17.1201L36.472 17.1454C37.148 17.2722 37.8509 17.323 38.5268 17.323C39.5001 17.323 40.4734 17.1962 41.3927 16.9172C42.2038 16.6635 42.9608 16.3084 43.6367 15.8012C44.2585 15.3447 44.7722 14.7613 45.1237 14.0765C45.5022 13.3663 45.6644 12.5801 45.6644 11.7938L45.659 11.7278L45.659 11.7277C45.6337 11.417 45.6068 11.0871 45.5563 10.7793C45.5022 10.475 45.3941 10.1706 45.2859 9.86629L45.2859 9.86622L45.1778 9.58723L47.2055 9.23214C47.4218 9.23214 47.6381 9.13069 47.8003 9.00388C47.9084 8.87706 47.9625 8.69952 47.9625 8.54734V7.2031H42.6904L42.6363 7.17773C42.0415 6.87337 41.3927 6.67047 40.7438 6.51829C40.0138 6.36611 39.2568 6.29002 38.4998 6.29002C37.5265 6.26466 36.5261 6.41684 35.5799 6.67047C34.7417 6.89874 33.9577 7.27918 33.2818 7.78645C32.6599 8.24298 32.1462 8.82633 31.7948 9.51114C31.4163 10.2213 31.227 11.0076 31.254 11.7938C31.227 12.7576 31.4974 13.696 32.0381 14.5077C32.5788 15.2939 33.3088 15.928 34.201 16.3592L34.6606 16.5874L34.201 16.8157C33.8495 16.9933 33.4981 17.1962 33.1736 17.4498C32.9033 17.6527 32.6599 17.9063 32.4436 18.1853C32.2544 18.4389 32.1192 18.6926 32.0111 18.9716C31.9299 19.2252 31.8759 19.4788 31.8759 19.7325C31.8488 20.2397 31.984 20.747 32.2544 21.1782C32.3625 21.3303 32.4977 21.4572 32.6599 21.584L32.714 21.6347C32.8221 21.7362 32.9844 21.8376 33.1195 21.9137C33.3899 22.0659 33.6603 22.1673 33.9577 22.2688C34.6065 22.497 35.3095 22.6746 36.0124 22.776C36.7695 22.8775 37.5535 22.9282 38.3376 22.9536C38.4998 22.962 38.662 22.9677 38.8242 22.9733C39.1487 22.9846 39.4731 22.9959 39.7975 23.0297C41.1223 23.1311 42.4201 23.334 43.7178 23.613C44.4748 23.7906 45.2048 24.0188 45.9077 24.2725L45.9078 24.2725ZM41.2034 9.63795C41.8253 10.2467 42.1767 11.0837 42.1227 11.9206C42.1497 12.3518 42.0686 12.783 41.8523 13.1888C41.6901 13.5692 41.4467 13.9243 41.1493 14.2033C40.8249 14.5077 40.4464 14.7106 40.0138 14.8628C39.0135 15.1671 37.905 15.1671 36.8776 14.8628C36.0395 14.5838 35.3365 13.9497 35.0391 13.1634C34.9039 12.783 34.8228 12.3518 34.8228 11.9206C34.7688 11.0837 35.1202 10.2467 35.7421 9.63795C36.3639 9.07996 37.2831 8.80097 38.4727 8.80097C39.6623 8.80097 40.5816 9.07996 41.2034 9.63795ZM29.6048 7.35532V21.1021H27.523C27.1986 21.1275 26.9012 20.9499 26.793 20.6456L26.4145 18.997L26.0631 19.3267C25.7386 19.6311 25.4142 19.9101 25.0627 20.1637C24.0083 20.9499 22.6835 21.3558 21.3317 21.3304C20.5747 21.3304 19.8177 21.2036 19.1418 20.9499C18.5199 20.6963 17.9792 20.3159 17.5466 19.834C17.114 19.3267 16.7626 18.7434 16.5733 18.1093C16.33 17.3991 16.2218 16.6382 16.2218 15.8773V6.61979H18.7903C19.1958 6.61979 19.5203 6.92415 19.5203 7.3046V15.8773C19.5203 16.8411 19.7636 17.6274 20.2773 18.16C20.791 18.6926 21.521 18.997 22.5213 18.997C23.2242 18.997 23.9001 18.8448 24.522 18.5405C25.1709 18.2361 25.7386 17.8303 26.2523 17.3484L26.3334 17.2723V6.61979H28.8748C29.2533 6.61979 29.6048 6.94951 29.6048 7.35532ZM14.5726 14.736C14.5996 14.0004 14.4645 13.2903 14.1671 12.6055C13.8967 12.0475 13.5452 11.5402 13.0586 11.109C12.5719 10.7032 12.0582 10.3481 11.4634 10.0945C10.8416 9.84088 10.2197 9.58725 9.57087 9.38434C9.13731 9.24355 8.7346 9.12206 8.35641 9.00796C8.12142 8.93707 7.89591 8.86903 7.67833 8.80099C7.11056 8.64881 6.51576 8.42054 5.97504 8.16691C5.51542 7.93865 5.08284 7.63429 4.73136 7.25384C4.37989 6.8734 4.19064 6.36613 4.21767 5.85887C4.21767 5.45306 4.29878 5.07261 4.461 4.69217C4.62322 4.33708 4.86655 4.00736 5.19098 3.75373C5.54246 3.5001 5.948 3.2972 6.38058 3.17038C6.89427 3.0182 7.435 2.96748 7.97573 2.96748C8.57053 2.96748 9.16533 3.04357 9.73309 3.22111C10.1657 3.37329 10.5983 3.55083 11.0038 3.75373C11.27 3.8882 11.5052 4.02266 11.7211 4.14611C11.7903 4.18566 11.8574 4.22407 11.923 4.261C12.0853 4.36245 12.3015 4.41317 12.4908 4.43854C12.626 4.43854 12.7612 4.41317 12.8693 4.33708C13.0045 4.23563 13.1126 4.13418 13.1667 3.982L14.113 2.30804C13.356 1.67396 12.4638 1.19206 11.4905 0.862339C10.3549 0.45653 9.13829 0.278988 7.92166 0.278988C6.89427 0.253625 5.86689 0.431167 4.89358 0.78625C4.08249 1.06524 3.32547 1.52178 2.6766 2.07977C1.51404 3.11966 0.838127 4.56535 0.838127 6.08714C0.811091 6.8734 0.946273 7.68502 1.21664 8.42055C1.45996 9.0039 1.83847 9.53652 2.32513 9.96769C2.78475 10.3989 3.32547 10.7286 3.92027 10.9822C4.51507 11.2358 5.13691 11.4641 5.78578 11.667C6.40762 11.8446 7.02946 12.0221 7.67833 12.1996C8.27313 12.3265 8.86793 12.5547 9.40866 12.8084C9.89531 13.062 10.3279 13.3664 10.6794 13.7722C11.0308 14.2033 11.2201 14.736 11.1931 15.2939C11.1931 16.3592 10.8145 17.1962 10.1116 17.7795C9.40866 18.3629 8.40831 18.6419 7.16464 18.6419C6.43466 18.6672 5.73171 18.5658 5.0558 18.3375C4.54211 18.16 4.05545 17.9317 3.5688 17.6527L3.56857 17.6526C3.08204 17.3483 2.75767 17.1454 2.48735 16.9679C2.29809 16.8157 2.05476 16.7396 1.81144 16.7143C1.67625 16.7143 1.51404 16.7396 1.40589 16.8157C1.38136 16.833 1.35545 16.8502 1.32908 16.8678C1.23921 16.9276 1.14417 16.9909 1.08145 17.0694L0 18.7687C0.405545 19.1238 0.838127 19.4535 1.29775 19.6818C1.83847 20.0368 2.43327 20.3158 3.02807 20.5441C3.64991 20.7977 4.29878 20.9753 4.97469 21.1021C5.6506 21.2543 6.32651 21.305 7.02946 21.305C8.13795 21.3304 9.2194 21.1528 10.2468 20.7977C11.1119 20.4934 11.923 20.0115 12.5989 19.4028C13.2478 18.8194 13.7345 18.1093 14.0589 17.323C14.4104 16.486 14.5726 15.6237 14.5726 14.736Z" fill="url(#paint0_linear_1294_2944)"/>
<path d="M48.4769 34.1388C39.3116 34.1895 30.3355 31.7039 22.6572 27.0371C22.0895 26.7074 21.9002 26.0226 22.2246 25.4646C22.5491 24.9066 23.3061 24.7544 23.9009 25.0588C23.9279 25.0841 23.955 25.0841 23.982 25.1095C31.2548 29.548 39.7712 31.8814 48.4499 31.8307C57.3178 31.8307 65.7532 29.4973 72.9178 25.1095C73.4856 24.7544 74.2426 24.9066 74.5941 25.4392C74.9726 25.9718 74.8103 26.682 74.2426 27.0117C66.7265 31.6785 57.8045 34.1388 48.4769 34.1388Z" fill="url(#paint1_linear_1294_2944)"/>
</g>
<defs>
<linearGradient id="paint0_linear_1294_2944" x1="-3.70669" y1="10.794" x2="127.69" y2="10.794" gradientUnits="userSpaceOnUse">
<stop stop-color="#47B7E5"/>
<stop offset="1" stop-color="#5369F6"/>
</linearGradient>
<linearGradient id="paint1_linear_1294_2944" x1="22.0692" y1="29.5326" x2="74.8335" y2="29.5326" gradientUnits="userSpaceOnUse">
<stop offset="0.12" stop-color="#34FFD2"/>
<stop offset="0.65" stop-color="#4E64FF"/>
<stop offset="0.85" stop-color="#6964D5"/>
</linearGradient>
<clipPath id="clip0_1294_2944">
<rect width="124.719" height="34.1387" fill="white"/>
</clipPath>
</defs>
</svg>
