<svg width="102" height="29" viewBox="0 0 102 29" fill="none" xmlns="http://www.w3.org/2000/svg">
<g clip-path="url(#clip0_1294_3072)">
<path fill-rule="evenodd" clip-rule="evenodd" d="M88.7434 0.968602C88.8311 1.16232 88.875 1.37757 88.875 1.59281C88.875 1.80806 88.8311 2.00178 88.7434 2.1955C88.6556 2.38922 88.5459 2.53989 88.3924 2.69056C88.0852 2.9919 87.6684 3.1641 87.2296 3.1641C86.8128 3.1641 86.4179 2.9919 86.1107 2.69056C85.9571 2.53989 85.8474 2.38922 85.7597 2.1955C85.6719 2.00178 85.628 1.80806 85.628 1.59281C85.628 1.37757 85.6719 1.16232 85.7597 0.968602C85.8474 0.774881 85.9571 0.62421 86.1107 0.473539C86.4179 0.172196 86.8128 0.0215245 87.2296 0C87.449 0 87.6684 0.043049 87.8658 0.129147C88.0633 0.215245 88.2388 0.322867 88.3924 0.452014C88.5459 0.602685 88.6776 0.774881 88.7434 0.968602ZM101.49 15.4761C101.029 16.1434 100.437 16.703 99.7348 17.1335C98.7256 17.7577 97.5409 18.0806 96.3342 18.059C96.1148 18.059 95.8954 18.059 95.676 18.016C95.4567 17.9945 95.2592 17.9729 95.0398 17.9299C94.5133 17.8223 94.0087 17.6501 93.526 17.4348C93.3066 17.3272 93.1092 17.2196 92.8898 17.0904C91.9903 16.5308 91.2224 15.7559 90.6959 14.8304C89.0066 11.903 89.9719 8.1793 92.8898 6.39277C93.0872 6.26363 93.3066 6.156 93.526 6.04838C94.0087 5.83314 94.5133 5.66094 95.0179 5.55332C95.2592 5.51027 95.4566 5.48875 95.654 5.46723L95.6541 5.46722C95.8735 5.44569 96.0929 5.42417 96.3123 5.42417C97.5189 5.40265 98.6817 5.72551 99.7128 6.34972C100.415 6.78021 101.007 7.33985 101.468 8.00711L100.919 8.5237L100.459 8.97571C100.349 9.12638 100.174 9.234 99.9761 9.25553C99.7449 9.25553 99.4936 9.05799 99.1836 8.81431L99.1424 8.78199C98.7695 8.48065 98.3746 8.22235 97.9358 8.02863C97.4751 7.83491 96.9705 7.72729 96.4659 7.74881H96.422C94.2061 7.77034 92.3852 9.53535 92.3852 11.7093V11.7524V11.7954C92.3852 13.9909 94.2061 15.7559 96.422 15.7559H96.4659C96.9705 15.7559 97.4751 15.6698 97.9358 15.4761C98.3746 15.2824 98.7695 15.0241 99.0985 14.7012L99.1483 14.6593C99.4321 14.42 99.6602 14.2277 99.8884 14.2277C100.108 14.2492 100.327 14.3784 100.459 14.5505L100.832 14.9165C100.892 14.9758 100.971 15.0396 101.069 15.1184L101.069 15.1185C101.183 15.2113 101.324 15.3248 101.49 15.4761ZM88.5679 17.9945V6.37127C88.5679 6.00535 88.2608 5.72553 87.9097 5.72553H85.8914V17.9945H88.5679ZM83.7413 15.8205L84.5531 17.1335C84.1582 17.4349 83.6975 17.6716 83.2148 17.8223C82.6444 17.9945 82.052 18.1021 81.4597 18.1021C80.4066 18.1021 79.5949 17.8008 79.0245 17.2412C78.454 16.6815 78.1688 15.8421 78.1688 14.8089V7.49057H76.6331C76.5234 7.49057 76.4356 7.46904 76.3479 7.38295C76.2601 7.29685 76.2163 7.1677 76.2382 7.06008V6.0269L78.3005 5.70404L78.9806 2.08792C79.0025 1.9803 79.0464 1.8942 79.1341 1.82963C79.2219 1.76506 79.3535 1.72201 79.4632 1.74353H80.8673V5.74709H84.2679V7.01703C84.2679 7.27532 84.0485 7.49057 83.7852 7.49057H83.7633L80.8454 7.81344V14.5721C80.8235 14.9596 80.9551 15.347 81.1964 15.6483C81.4377 15.9282 81.8107 16.0788 82.1617 16.0573C82.3592 16.0573 82.5347 16.0358 82.7102 15.9712C82.8419 15.9282 82.9515 15.8851 83.0832 15.8205C83.1755 15.7843 83.2522 15.7329 83.3135 15.6918L83.3135 15.6918L83.3464 15.6699C83.3582 15.6641 83.3684 15.6583 83.3778 15.653C83.4037 15.6384 83.424 15.6268 83.4561 15.6268C83.4781 15.6268 83.522 15.6268 83.5439 15.6483C83.6283 15.6981 83.6738 15.7478 83.7102 15.7877C83.7211 15.7996 83.7312 15.8106 83.7413 15.8205ZM75.251 14.0985C75.2729 13.6681 75.1851 13.2591 75.0096 12.8716C74.8561 12.5488 74.6367 12.2474 74.3076 12.0752C74.0224 11.8385 73.6933 11.6232 73.3423 11.4726C72.9693 11.3004 72.5963 11.1497 72.2014 11.0205C71.8285 10.8914 71.4555 10.7622 71.0606 10.6546C70.7096 10.547 70.3586 10.4179 70.0075 10.2672C69.7223 10.138 69.4371 9.94432 69.2177 9.72907C68.9983 9.4923 68.8886 9.19096 68.8886 8.88962C68.8667 8.41608 69.108 7.96407 69.5029 7.70577C69.9637 7.40443 70.5121 7.25376 71.0825 7.27528C71.4555 7.27528 71.8285 7.31833 72.1795 7.40443C72.4647 7.469 72.728 7.57663 72.9912 7.68425L73.2984 7.81339L73.6055 7.96407C73.7372 8.02864 73.8688 8.07169 74.0004 8.07169C74.0882 8.07169 74.1759 8.07169 74.2418 8.02864C74.3295 7.96407 74.3953 7.89949 74.4392 7.81339L75.0535 6.86632C74.5708 6.45735 74.0224 6.13448 73.43 5.89772C72.004 5.40265 70.4682 5.3596 69.0203 5.79009C68.4937 5.96229 68.0111 6.24211 67.5723 6.5865C67.1993 6.90937 66.8922 7.29681 66.6947 7.74882C66.4973 8.20084 66.3876 8.67437 66.3876 9.14791C66.3876 9.38468 66.4095 9.64298 66.4534 9.87975C66.4973 10.095 66.5631 10.2887 66.6509 10.4824C66.8044 10.8268 67.0238 11.1497 67.309 11.408C67.5942 11.6663 67.9233 11.8815 68.2743 12.0537C68.6473 12.2259 69.0203 12.3766 69.4152 12.5057C69.7881 12.6349 70.183 12.764 70.5779 12.8716C70.929 12.9793 71.28 13.1084 71.631 13.2591C71.9382 13.3882 72.2014 13.5604 72.4208 13.7972C72.6402 14.034 72.7718 14.3568 72.7499 14.6797C72.7499 14.9165 72.706 15.1317 72.6183 15.347C72.5305 15.5622 72.3769 15.7559 72.1795 15.9066C71.9601 16.0788 71.7188 16.2079 71.4555 16.294C71.1264 16.4017 70.7754 16.4447 70.4244 16.4447C70.0075 16.4662 69.5907 16.4017 69.1958 16.2725L69.1956 16.2725C68.9105 16.1649 68.6253 16.0572 68.3621 15.9066C68.3136 15.8788 68.2672 15.8525 68.223 15.8274L68.2229 15.8273C68.0274 15.7162 67.873 15.6284 67.7478 15.5407C67.6162 15.4546 67.4626 15.4115 67.309 15.4115C67.1774 15.4115 67.0458 15.4331 66.9361 15.4976C66.8483 15.5407 66.7606 15.6268 66.6947 15.7344L66.0804 16.7461C66.2998 16.9182 66.5411 17.0689 66.7823 17.2195L66.7824 17.2195L66.7825 17.2196C67.1116 17.4133 67.4626 17.564 67.8356 17.6931C68.2085 17.8438 68.6254 17.9514 69.0203 18.016C69.4371 18.0806 69.8759 18.1236 70.2927 18.1236C71.0167 18.1451 71.7407 18.0375 72.4428 17.8223C73.0132 17.6501 73.5178 17.3487 73.9785 16.9828C74.3953 16.6384 74.7025 16.2079 74.9219 15.7129C75.1413 15.1963 75.251 14.6582 75.251 14.0985ZM65.2248 10.9775C65.2248 11.1712 65.2248 11.3434 65.2028 11.5371C65.2028 11.6447 65.159 11.7308 65.1151 11.8169C65.0931 11.86 65.0493 11.903 64.9834 11.9246C64.8957 11.9461 64.8079 11.9676 64.7202 11.9676H56.493L56.515 12.2044C56.6027 13.5604 56.9976 14.5721 57.6558 15.2178C58.314 15.8635 59.1915 16.2079 60.2885 16.2079C60.7492 16.2079 61.2099 16.1434 61.6706 16.0142C61.9997 15.9066 62.3508 15.7774 62.6579 15.6268L62.658 15.6267C62.9212 15.4976 63.1845 15.3685 63.3819 15.2393C63.5355 15.1532 63.689 15.0887 63.8646 15.0887C63.9304 15.0887 64.0181 15.1102 64.0839 15.1317L64.084 15.1317C64.1498 15.1748 64.2156 15.2178 64.2595 15.2824L65.0493 16.2725C64.7641 16.5954 64.435 16.8537 64.062 17.0904C63.6452 17.3487 63.2283 17.564 62.7676 17.7146C62.3069 17.8653 61.8462 17.9729 61.3854 18.0375C60.9247 18.1021 60.464 18.1236 60.0033 18.1236C59.1696 18.1236 58.3578 17.9729 57.568 17.6931C56.844 17.4133 56.1639 16.9828 55.6155 16.4447C55.045 15.8635 54.6063 15.1532 54.321 14.3999C53.992 13.4743 53.8165 12.5057 53.8384 11.5371C53.8384 10.7192 53.97 9.92278 54.2552 9.1479C54.5185 8.43759 54.9134 7.79186 55.4399 7.23222C55.9665 6.67258 56.6027 6.24209 57.3267 5.94075C58.1165 5.61788 58.9721 5.44569 59.8497 5.46721C60.5956 5.46721 61.3196 5.57483 62.0217 5.83313C62.6579 6.0699 63.2283 6.43581 63.711 6.90935C64.1936 7.40442 64.5885 7.98558 64.8299 8.65284C65.0054 9.10485 65.1151 9.57839 65.1809 10.0735C65.2028 10.3317 65.2248 10.6546 65.2248 10.9775ZM62.8554 10.5039V10.2887C62.8554 9.87973 62.7895 9.49229 62.6798 9.10485C62.5701 8.73893 62.3946 8.39454 62.1314 8.11472C61.8681 7.81338 61.561 7.59814 61.188 7.42594C60.7711 7.25374 60.3324 7.16765 59.8716 7.16765C58.9063 7.16765 58.1385 7.44746 57.59 7.98558C57.0415 8.52369 56.6905 9.27705 56.5369 10.2456L56.493 10.5039H62.8554ZM51.9517 20.599C52.2588 20.7281 52.544 20.8573 52.8292 21.0079C52.895 21.0295 52.9609 21.0725 53.0267 21.1586C53.0358 21.1675 53.0524 21.1801 53.0718 21.1949C53.0994 21.2158 53.1326 21.241 53.1583 21.2662V21.2017L53.1638 21.1479C53.1838 20.9538 53.2022 20.7746 53.2022 20.5774C53.2241 19.9963 53.0925 19.4366 52.8073 18.9201C52.544 18.5111 52.193 18.1667 51.7542 17.9084C51.2935 17.6501 50.7669 17.4564 50.2404 17.3488C49.6481 17.2196 49.0557 17.1335 48.4414 17.0905C47.871 17.0474 47.2786 17.0259 46.6424 17.0259C46.0939 17.0259 45.5455 17.0044 45.0189 16.9398C44.6021 16.8968 44.1852 16.7891 43.8123 16.6169C43.4612 16.4663 43.2638 16.1219 43.2638 15.756C43.2638 15.3255 43.549 14.938 44.0975 14.6152L44.1633 14.5721L44.251 14.5936C44.7776 14.7013 45.348 14.7443 45.8965 14.7443C46.6863 14.7443 47.4761 14.6367 48.222 14.3999C48.9021 14.1847 49.5164 13.8833 50.0649 13.4528C51.118 12.6349 51.7323 11.365 51.7103 10.052C51.7103 9.77216 51.6665 9.47081 51.6226 9.191C51.5787 8.93272 51.491 8.67445 51.4032 8.41618L51.4032 8.41611L51.3154 8.17935L52.9609 7.878C53.1583 7.85648 53.3338 7.7919 53.4655 7.66276C53.5532 7.55513 53.5971 7.40446 53.5751 7.27532V6.13452H49.319L49.2751 6.11299C48.7924 5.87623 48.2659 5.68251 47.7394 5.55336C47.147 5.42421 46.5327 5.35964 45.9184 5.35964C45.1286 5.33811 44.3169 5.44574 43.549 5.68251C42.8689 5.87623 42.2327 6.19909 41.6842 6.62958C40.6311 7.44751 40.0168 8.69593 40.0387 10.0305C40.0168 10.8484 40.2362 11.6448 40.675 12.3336C41.1138 13.0008 41.7061 13.5389 42.4301 13.9049L42.8031 14.0986L42.4301 14.2923C42.1449 14.443 41.8597 14.6152 41.5964 14.8304C41.377 15.0026 41.1796 15.2179 41.0041 15.4546C40.8505 15.6699 40.7408 15.8851 40.653 16.1219C40.5872 16.3371 40.5433 16.5524 40.5433 16.7676C40.5214 17.1981 40.6311 17.6286 40.8505 17.9945C40.9382 18.1021 41.026 18.2098 41.1357 18.2959L41.2235 18.3604C41.3332 18.4465 41.4428 18.5326 41.5745 18.5972C41.7939 18.7263 42.0133 18.8124 42.2546 18.8985C42.8031 19.0923 43.3515 19.2429 43.922 19.329C44.5582 19.4151 45.1725 19.4582 45.8087 19.4797C45.9418 19.487 46.0774 19.4918 46.2138 19.4966L46.2141 19.4966C46.4823 19.5061 46.7537 19.5157 47.0154 19.5443C48.0904 19.6304 49.1435 19.8026 50.1965 20.0393C50.7889 20.19 51.3812 20.3837 51.9517 20.599ZM48.8802 10.1165C48.9021 10.4825 48.8363 10.8484 48.7047 11.1928C48.595 11.5156 48.3975 11.817 48.1562 12.0538C47.8929 12.312 47.5858 12.5058 47.2348 12.6134C46.8399 12.7425 46.4011 12.8071 45.9623 12.8071C45.5235 12.8286 45.1067 12.7425 44.6898 12.6134C44.3388 12.5058 44.0097 12.312 43.7465 12.0538C43.4832 11.817 43.2857 11.5156 43.176 11.1928C43.0444 10.8484 42.9786 10.4825 42.9786 10.1165C42.9347 9.40624 43.2199 8.69593 43.7245 8.17935C44.2072 7.70581 44.9312 7.46904 45.9184 7.46904C46.9057 7.46904 47.6297 7.70581 48.1343 8.17935C48.6389 8.69593 48.9241 9.40624 48.8802 10.1165ZM38.3933 21.0079C38.1081 20.8572 37.8229 20.7281 37.5377 20.5989C36.9673 20.3837 36.3749 20.1899 35.7606 20.0393C34.7076 19.8025 33.6545 19.6303 32.5795 19.5442C32.3162 19.5155 32.0529 19.5059 31.7897 19.4964C31.658 19.4916 31.5264 19.4868 31.3948 19.4796C30.7585 19.4581 30.1223 19.4151 29.508 19.329C28.9376 19.2429 28.3672 19.0922 27.8406 18.8985C27.5993 18.8124 27.3799 18.7263 27.1605 18.5971C27.0508 18.5326 26.9192 18.4465 26.8314 18.3604L26.7876 18.3173C26.6559 18.2097 26.5462 18.1021 26.4585 17.9729C26.2391 17.607 26.1294 17.1765 26.1513 16.746C26.1513 16.5308 26.1952 16.3155 26.261 16.1003C26.3488 15.8635 26.4585 15.6483 26.6121 15.433C26.7876 15.1963 26.985 14.981 27.2044 14.8088C27.4677 14.5936 27.7529 14.4214 28.0381 14.2707L28.4111 14.077L28.0381 13.8833C27.3141 13.5174 26.7218 12.9792 26.283 12.312C25.8442 11.6232 25.6248 10.8268 25.6467 10.0089C25.6248 9.3416 25.7784 8.67434 26.0855 8.07166C26.3707 7.4905 26.7876 6.99543 27.2922 6.60799C27.8406 6.1775 28.4769 5.85464 29.157 5.66092C29.9249 5.44567 30.7366 5.31652 31.5264 5.33805C32.1407 5.33805 32.755 5.40262 33.3473 5.53177C33.8739 5.66092 34.4004 5.83311 34.8831 6.09141L34.927 6.11293H39.2051V7.25373C39.2051 7.38288 39.1612 7.53355 39.0734 7.64117C38.9418 7.74879 38.7663 7.83489 38.5908 7.83489L36.9454 8.13623L37.0331 8.373C37.1209 8.6313 37.2086 8.88959 37.2525 9.14788C37.2935 9.40904 37.3153 9.68895 37.3359 9.95261V9.95267L37.3359 9.95275L37.3403 10.0089C37.3403 10.6761 37.2086 11.3434 36.9015 11.9461C36.6163 12.5272 36.1994 13.0223 35.6948 13.4097C35.1464 13.8402 34.5321 14.1416 33.8739 14.3568C33.128 14.5936 32.3382 14.7012 31.5483 14.7012C30.9999 14.7012 30.4295 14.6581 29.881 14.5505L29.7932 14.529L29.7274 14.5721C29.1789 14.8949 28.8937 15.2824 28.8937 15.7128C28.8937 16.0788 29.0912 16.4232 29.4422 16.5738C29.8152 16.746 30.232 16.8536 30.6488 16.8967C31.1754 16.9613 31.7239 16.9828 32.2723 16.9828C32.8647 16.9828 33.457 17.0043 34.0713 17.0474C34.6856 17.0904 35.278 17.1765 35.8703 17.3057C36.3969 17.4133 36.9234 17.607 37.3841 17.8653C37.8229 18.1236 38.1739 18.468 38.4372 18.8769C38.7224 19.3935 38.8541 19.9532 38.8321 20.5343C38.8321 20.7496 38.8102 20.9648 38.7882 21.1585V21.2231C38.7625 21.1979 38.7293 21.1727 38.7018 21.1518C38.6823 21.137 38.6657 21.1244 38.6566 21.1155C38.6085 21.0966 38.5646 21.0777 38.525 21.0607L38.5249 21.0607C38.4741 21.0388 38.4303 21.02 38.3933 21.0079ZM34.4662 10.1165C34.5101 9.40618 34.2249 8.69587 33.7203 8.17928C33.2157 7.70574 32.4698 7.46897 31.5045 7.46897C30.5391 7.46897 29.7932 7.70574 29.2886 8.17928C28.784 8.69587 28.4988 9.40618 28.5427 10.1165C28.5427 10.4824 28.6085 10.8483 28.7182 11.1712C28.9595 11.8384 29.53 12.3766 30.2101 12.6133C31.0437 12.8716 31.9432 12.8716 32.755 12.6133C33.106 12.4842 33.4132 12.312 33.6764 12.0537C33.9178 11.8169 34.1152 11.5156 34.2469 11.1927C34.4224 10.8483 34.4882 10.4824 34.4662 10.1165ZM24.3084 17.9084V6.24212C24.3084 5.89773 24.0232 5.61791 23.7161 5.61791H21.6538V14.6582L21.588 14.7228C21.1711 15.1317 20.7104 15.4761 20.1839 15.7344C19.6793 15.9927 19.1308 16.1219 18.5604 16.1219C17.7486 16.1219 17.1563 15.8636 16.7394 15.4115C16.3226 14.9595 16.1251 14.2923 16.1251 13.4743V6.19907C16.1251 5.8762 15.8619 5.61791 15.5328 5.61791H13.4486V13.4743C13.4486 14.1201 13.5363 14.7658 13.7338 15.3685C13.8874 15.9066 14.1726 16.4017 14.5236 16.8322C14.8746 17.2411 15.3134 17.564 15.818 17.7792C16.3665 17.9945 16.9808 18.1021 17.5951 18.1021C18.692 18.1236 19.767 17.7792 20.6227 17.112C20.9079 16.8967 21.1711 16.66 21.4344 16.4017L21.7196 16.1219L22.0268 17.5209C22.1145 17.7792 22.3558 17.9299 22.6191 17.9084H24.3084ZM11.7812 10.6977C12.0225 11.2789 12.1322 11.8816 12.1103 12.5058C12.1103 13.2591 11.9787 13.991 11.6935 14.7013C11.4302 15.3685 11.0353 15.9712 10.5088 16.4663C9.96027 16.9829 9.3021 17.3918 8.60005 17.6501C7.76637 17.9515 6.88881 18.1021 5.98931 18.0806C5.41889 18.0806 4.87042 18.0376 4.32194 17.9084C3.77346 17.8008 3.24693 17.6501 2.74233 17.4349C2.25967 17.2412 1.77701 17.0044 1.33823 16.703C0.965267 16.5093 0.614242 16.2295 0.285156 15.9282L1.16272 14.486C1.21361 14.4195 1.29073 14.3658 1.36366 14.315L1.36371 14.3149C1.38508 14.3 1.4061 14.2854 1.42599 14.2708C1.51374 14.2062 1.64538 14.1847 1.75507 14.1847C1.95252 14.2062 2.14998 14.2708 2.30355 14.3999C2.5229 14.5506 2.78611 14.7227 3.1809 14.9809L3.18098 14.981L3.18111 14.9811C3.57601 15.2179 3.97092 15.4116 4.38776 15.5622C4.93623 15.756 5.50665 15.8421 6.099 15.8205C7.1082 15.8205 7.91994 15.5838 8.49036 15.0887C9.06077 14.5936 9.36792 13.8833 9.36792 12.9793C9.38986 12.5058 9.23629 12.0538 8.95108 11.6878C8.66587 11.3434 8.31485 11.0852 7.91994 10.8699C7.48116 10.6547 6.9985 10.4609 6.51584 10.3533C5.98931 10.2027 5.48471 10.052 4.98011 9.90131C4.45357 9.72911 3.94898 9.53539 3.46632 9.32015C2.98366 9.1049 2.54488 8.82509 2.17191 8.45917C1.77701 8.09325 1.46986 7.64124 1.27241 7.14618C1.05302 6.52197 0.943328 5.83318 0.965267 5.16592C0.965267 3.87445 1.51374 2.64756 2.45712 1.76505C2.98366 1.29152 3.59795 0.904076 4.25612 0.667306C5.04593 0.365963 5.87961 0.215292 6.7133 0.236817C7.70055 0.236817 8.68781 0.387488 9.60925 0.73188C10.3991 1.0117 11.123 1.42066 11.7373 1.95878L10.9695 3.37939C10.9256 3.50854 10.8378 3.59464 10.7281 3.68073C10.6404 3.74531 10.5307 3.76683 10.421 3.76683C10.2674 3.74531 10.0919 3.70226 9.96027 3.61616C9.90704 3.58482 9.85252 3.55222 9.79639 3.51866C9.62119 3.4139 9.43035 3.29978 9.21435 3.18567C8.88526 3.01348 8.53424 2.8628 8.18321 2.73366C7.72249 2.58299 7.23983 2.51841 6.75717 2.51841C6.31839 2.51841 5.87961 2.56146 5.46277 2.69061C5.11175 2.79823 4.78266 2.97043 4.49745 3.18567C4.23418 3.40092 4.03673 3.68073 3.9051 3.98208C3.77346 4.30494 3.70765 4.62781 3.70765 4.9722C3.68571 5.40269 3.83928 5.83318 4.12449 6.15605C4.4097 6.47892 4.76072 6.73721 5.13369 6.93093C5.57247 7.14618 6.05513 7.3399 6.51584 7.46904C6.6924 7.52678 6.8754 7.58452 7.06608 7.64469L7.0661 7.64469C7.37298 7.74152 7.69976 7.84462 8.05158 7.96411C8.5781 8.1363 9.08268 8.35154 9.58727 8.56677L9.5873 8.56679L9.58731 8.56679C10.07 8.78204 10.4868 9.08338 10.8817 9.42777C11.2766 9.79369 11.5618 10.2242 11.7812 10.6977ZM18.6702 22.9451C24.9009 26.9056 32.1846 29.015 39.622 28.972C47.1909 28.972 54.4308 26.8841 60.5299 22.9236C60.9906 22.6438 61.1222 22.0411 60.8151 21.5891C60.5299 21.137 59.9156 21.0079 59.4549 21.3092C53.641 25.033 46.796 27.0132 39.6 27.0132C32.5576 27.0563 25.6468 25.076 19.7452 21.3092C19.7342 21.2985 19.7233 21.2931 19.7123 21.2877C19.7013 21.2823 19.6903 21.277 19.6794 21.2662C19.1967 21.0079 18.5824 21.137 18.3192 21.6106C18.0559 22.0841 18.2095 22.6653 18.6702 22.9451Z" fill="white"/>
</g>
<defs>
<clipPath id="clip0_1294_3072">
<rect width="101.205" height="28.972" fill="white" transform="translate(0.285156)"/>
</clipPath>
</defs>
</svg>
