<svg width="14" height="13" viewBox="0 0 14 13" fill="none" xmlns="http://www.w3.org/2000/svg">
<path d="M6.77516 0.75H0.296875L1.41031 10.2984L6.76969 13.0328H6.77625L12.1433 10.2984L13.2534 0.75H6.77516ZM11.4531 6.75031C11.4531 6.84656 11.4531 6.93297 11.3689 6.96906L7.78688 8.69172L7.52219 8.81531L7.49266 8.47078V7.79375L7.51891 7.62203L7.63813 7.57062L10.1734 6.43531L7.8175 5.38531L6.81344 7.36828L6.21734 8.52L6.08391 8.76828L5.85969 8.66984L2.18141 6.97125C2.13776 6.95239 2.1 6.92213 2.0721 6.88363C2.04419 6.84514 2.02716 6.79984 2.02281 6.7525V6.11812C2.02652 6.07103 2.04292 6.02582 2.07027 5.98731C2.09761 5.94879 2.13489 5.9184 2.17813 5.89937L5.89688 4.17891L6.24797 4.02141V5.07797L6.27422 5.22453L6.10359 5.30109L3.54313 6.43312L5.93297 7.4864L6.81344 5.73641L7.49266 4.35281L7.61625 4.10344L7.81422 4.20297L11.3689 5.89719C11.4488 5.93547 11.452 6.02187 11.452 6.11594L11.4531 6.75031Z" fill="#0B3754"/>
</svg>
